<svg width="325" height="298" viewBox="0 0 325 298" fill="none" xmlns="http://www.w3.org/2000/svg">
<path d="M321.09 170.023C308.992 201.632 308.354 198.574 285.5 220C284.549 220.892 236.177 252.071 211.992 263.819C210.337 264.623 208.602 265.227 206.818 265.678L122.842 286.908C121.283 287.302 119.695 287.57 118.093 287.71L32.7143 295.149C15.1445 296.68 0.0510127 282.798 0.110195 265.162L0.899356 29.9919C0.954944 13.4265 14.4266 0.041504 30.9919 0.0927107L294.318 0.906702C310.957 0.958137 324.376 14.5421 324.224 31.1809L323.049 159.656C323.017 163.191 322.353 166.721 321.09 170.023Z" fill="url(#paint0_linear_505_21)"/>
<path d="M82.9091 143.818V127.455L133.636 107.136V124.318L101.318 135.5L101.864 134.682V136.591L101.318 135.773L133.636 146.955V164.136L82.9091 143.818ZM180.562 90.9091L158.062 174.5H142.108L164.608 90.9091H180.562ZM239.761 143.818L189.034 164.136V146.955L221.352 135.773L220.807 136.591V134.682L221.352 135.5L189.034 124.318V107.136L239.761 127.455V143.818Z" fill="#F8F8F8"/>
<defs>
<linearGradient id="paint0_linear_505_21" x1="90.9198" y1="298" x2="233.58" y2="9.51593e-06" gradientUnits="userSpaceOnUse">
<stop stop-color="#E8A934"/>
<stop offset="0.5" stop-color="#DC8E45"/>
<stop offset="1" stop-color="#E2881F"/>
</linearGradient>
</defs>
</svg>
