<svg width="60" height="60" viewBox="0 0 60 60" fill="none" xmlns="http://www.w3.org/2000/svg">
<rect x="15" y="21.8181" width="4.28571" height="5.45455" fill="#1E1E1E"/>
<rect x="40.7142" y="21.8181" width="4.28571" height="5.45455" fill="#1E1E1E"/>
<rect x="23.5713" y="21.8181" width="4.28571" height="5.45455" fill="#1E1E1E"/>
<rect x="32.1427" y="21.8181" width="4.28571" height="5.45455" fill="#1E1E1E"/>
<rect x="25.7142" width="4.28571" height="5.45455" fill="#1E1E1E"/>
<rect x="21.4287" width="4.28571" height="5.45455" fill="#1E1E1E"/>
<rect x="17.1427" width="4.28571" height="5.45455" fill="#1E1E1E"/>
<rect x="12.8573" width="4.28571" height="5.45455" fill="#1E1E1E"/>
<rect x="8.57129" width="4.28571" height="5.45455" fill="#1E1E1E"/>
<rect x="4.28577" y="5.45435" width="4.28571" height="5.45455" fill="#1E1E1E"/>
<rect y="10.9092" width="4.28571" height="5.45455" fill="#1E1E1E"/>
<rect y="16.3638" width="4.28571" height="5.45455" fill="#1E1E1E"/>
<rect y="21.8181" width="4.28571" height="5.45455" fill="#1E1E1E"/>
<rect y="27.2729" width="4.28571" height="5.45455" fill="#1E1E1E"/>
<rect y="32.7271" width="4.28571" height="5.45455" fill="#1E1E1E"/>
<rect x="4.28577" y="38.1819" width="4.28571" height="5.45455" fill="#1E1E1E"/>
<rect x="8.57129" y="43.6362" width="4.28571" height="5.45455" fill="#1E1E1E"/>
<rect x="17.1427" y="43.6362" width="4.28571" height="5.45455" fill="#1E1E1E"/>
<rect x="12.8573" y="43.6362" width="4.28571" height="5.45455" fill="#1E1E1E"/>
<rect x="21.4287" y="49.0908" width="4.28571" height="5.45455" fill="#1E1E1E"/>
<rect x="25.7142" y="43.6362" width="4.28571" height="5.45455" fill="#1E1E1E"/>
<rect x="34.2858" y="43.6362" width="4.28571" height="5.45455" fill="#1E1E1E"/>
<rect x="38.5713" y="43.6362" width="4.28571" height="5.45455" fill="#1E1E1E"/>
<rect x="42.8573" y="43.6362" width="4.28571" height="5.45455" fill="#1E1E1E"/>
<rect x="47.1427" y="43.6362" width="4.28571" height="5.45455" fill="#1E1E1E"/>
<rect x="47.1427" width="4.28571" height="5.45455" fill="#1E1E1E"/>
<rect x="51.4287" y="38.1819" width="4.28571" height="5.45455" fill="#1E1E1E"/>
<rect x="42.8573" width="4.28571" height="5.45455" fill="#1E1E1E"/>
<rect x="25.7142" y="54.5457" width="4.28571" height="5.45455" fill="#1E1E1E"/>
<rect x="55.7142" y="32.7271" width="4.28571" height="5.45455" fill="#1E1E1E"/>
<rect x="55.7142" y="27.2729" width="4.28571" height="5.45455" fill="#1E1E1E"/>
<rect x="55.7142" y="21.8181" width="4.28571" height="5.45455" fill="#1E1E1E"/>
<rect x="55.7142" y="16.3638" width="4.28571" height="5.45455" fill="#1E1E1E"/>
<rect x="55.7142" y="10.9092" width="4.28571" height="5.45455" fill="#1E1E1E"/>
<rect x="51.4287" y="5.45435" width="4.28571" height="5.45455" fill="#1E1E1E"/>
<rect x="25.7142" y="49.0908" width="4.28571" height="5.45455" fill="#1E1E1E"/>
<rect x="38.5713" width="4.28571" height="5.45455" fill="#1E1E1E"/>
<rect x="34.2858" width="4.28571" height="5.45455" fill="#1E1E1E"/>
<rect x="30" width="4.28571" height="5.45455" fill="#1E1E1E"/>
<rect x="30" y="43.6362" width="4.28571" height="5.45455" fill="#1E1E1E"/>
</svg>
