<svg width="266" height="6" viewBox="0 0 266 6" fill="none" xmlns="http://www.w3.org/2000/svg">
<path d="M0.333333 3C0.333333 4.47276 1.52724 5.66667 3 5.66667C4.47276 5.66667 5.66667 4.47276 5.66667 3C5.66667 1.52724 4.47276 0.333333 3 0.333333C1.52724 0.333333 0.333333 1.52724 0.333333 3ZM260.333 3C260.333 4.47276 261.527 5.66667 263 5.66667C264.473 5.66667 265.667 4.47276 265.667 3C265.667 1.52724 264.473 0.333333 263 0.333333C261.527 0.333333 260.333 1.52724 260.333 3ZM3 3.5L263 3.5V2.5L3 2.5V3.5Z" fill="black"/>
</svg>
