<svg width="20" height="871" viewBox="0 0 20 871" fill="none" xmlns="http://www.w3.org/2000/svg">
<path d="M10.2919 9.33333C8.81911 9.33283 7.62479 10.5263 7.62429 11.9991C7.62378 13.4718 8.81728 14.6662 10.29 14.6667C11.7628 14.6672 12.9571 13.4737 12.9576 12.0009C12.9581 10.5282 11.7646 9.33384 10.2919 9.33333ZM10.0009 858.333C8.52815 858.333 7.33384 859.526 7.33333 860.999C7.33283 862.472 8.52633 863.666 9.99909 863.667C11.4718 863.667 12.6662 862.474 12.6667 861.001C12.6672 859.528 11.4737 858.334 10.0009 858.333ZM9.79095 11.9998L9.5 861L10.5 861L10.791 12.0002L9.79095 11.9998Z" fill="black"/>
<circle cx="10" cy="10" r="10" fill="#762D47"/>
<circle cx="10" cy="861" r="10" fill="#762D47"/>
</svg>
