<svg width="61" height="61" viewBox="0 0 61 61" fill="none" xmlns="http://www.w3.org/2000/svg">
<g clip-path="url(#clip0_14_100)">
<path d="M26.126 10.2943L26.8859 7.05735L23.6489 6.29744L20.3998 5.53467L19.6399 8.77167L22.889 9.53443L26.126 10.2943Z" fill="black"/>
<path d="M29.3753 11.057L32.6245 11.8198L33.3844 8.58281L36.6214 9.34272L37.3841 6.09355L34.1471 5.33364L30.898 4.57087L27.6488 3.80811L26.886 7.05727L30.1352 7.82004L29.3753 11.057Z" fill="black"/>
<path d="M19.6399 8.77156L16.3907 8.00879L15.628 11.258L18.8771 12.0207L19.6399 8.77156Z" fill="black"/>
<path d="M29.3753 11.0571L26.1261 10.2943L25.3633 13.5435L28.6125 14.3062L29.3753 11.0571Z" fill="black"/>
<path d="M21.3636 16.0327L20.6037 19.2697L19.8409 22.5189L19.0781 25.7681L18.3182 29.0051L21.5552 29.765L22.3151 26.528L23.0779 23.2788L23.8407 20.0296L24.6006 16.7926L25.3633 13.5435L22.1263 12.7836L21.3636 16.0327Z" fill="black"/>
<path d="M14.8652 14.5071L15.628 11.258L12.391 10.498L11.6282 13.7472L10.8683 16.9842L14.1053 17.7441L14.8652 14.5071Z" fill="black"/>
<path d="M51.5211 33.3843L50.7611 36.6213L47.5241 35.8614L46.7614 39.1106L49.9984 39.8705L49.2356 43.1196L52.4848 43.8824L53.2475 40.6332L54.0103 37.3841L54.7702 34.1471L51.5211 33.3843Z" fill="black"/>
<path d="M8.58286 26.7197L9.34277 23.4827L10.1055 20.2335L10.8683 16.9843L7.61914 16.2216L6.85637 19.4707L6.0936 22.7199L5.33369 25.9569L4.57093 29.2061L3.80816 32.4552L7.05733 33.218L7.82009 29.9688L8.58286 26.7197Z" fill="black"/>
<path d="M24.8043 30.5277L21.5552 29.765L20.7924 33.0141L24.0416 33.7769L24.8043 30.5277Z" fill="black"/>
<path d="M27.2908 34.5397L24.0416 33.7769L23.2789 37.0261L26.528 37.7889L27.2908 34.5397Z" fill="black"/>
<path d="M46.7614 39.1105L43.5122 38.3478L42.7494 41.5969L45.9986 42.3597L46.7614 39.1105Z" fill="black"/>
<path d="M10.2942 33.9779L7.05725 33.218L6.29734 36.455L5.53457 39.7041L8.77157 40.464L9.53434 37.2149L10.2942 33.9779Z" fill="black"/>
<path d="M29.005 41.7857L32.2542 42.5485L35.5034 43.3113L38.7404 44.0712L41.9895 44.8339L42.7495 41.5969L39.5003 40.8342L36.2633 40.0743L33.0141 39.3115L29.765 38.5487L26.528 37.7888L25.768 41.0258L29.005 41.7857Z" fill="black"/>
<path d="M45.2387 45.5967L44.476 48.8459L47.713 49.6058L48.4757 46.3566L49.2357 43.1197L45.9987 42.3597L45.2387 45.5967Z" fill="black"/>
<path d="M12.0208 41.2268L8.77161 40.464L8.00884 43.7132L11.258 44.4759L12.0208 41.2268Z" fill="black"/>
<path d="M44.476 48.8459L41.2268 48.0831L40.464 51.3323L43.7132 52.0951L44.476 48.8459Z" fill="black"/>
<path d="M14.5072 45.2387L11.2581 44.476L10.4981 47.7129L13.7473 48.4757L16.9843 49.2356L17.7442 45.9986L14.5072 45.2387Z" fill="black"/>
<path d="M33.9779 49.8096L33.218 53.0466L36.455 53.8065L39.7042 54.5693L40.4641 51.3323L37.2149 50.5695L33.9779 49.8096Z" fill="black"/>
<path d="M26.7196 51.5211L23.4826 50.7612L20.2334 49.9984L16.9843 49.2357L16.2215 52.4848L19.4707 53.2476L22.7198 54.0104L25.9568 54.7703L29.206 55.533L32.4552 56.2958L33.2179 53.0466L29.9688 52.2839L26.7196 51.5211Z" fill="black"/>
</g>
<defs>
<clipPath id="clip0_14_100">
<rect width="50" height="50" fill="white" transform="translate(11.4272) rotate(13.2114)"/>
</clipPath>
</defs>
</svg>
