<svg width="50" height="50" viewBox="0 0 50 50" fill="none" xmlns="http://www.w3.org/2000/svg">
<g clip-path="url(#clip0_22_68)">
<path d="M25 0C11.1937 0 0 11.1937 0 25C0 38.8062 11.1937 50 25 50C38.8062 50 50 38.8062 50 25C50 11.1937 38.8062 0 25 0ZM14.5042 16C16.075 16 17.2896 17.1437 17.4312 18.5C17.575 19.7146 17.075 20.7854 15.7188 21.4292C15.0042 21.7854 14.7187 21.7875 14.575 21.5729C14.5042 21.4292 14.575 21.2875 14.7188 21.1437C16.0042 20.0729 16.0042 19.2146 15.8604 18.0021C15.7896 17.2146 15.2188 16.7146 14.6458 16.7146C12.1458 16.7146 8.575 22.2854 9.075 26.3583C9.28958 27.9292 10.2187 29.7875 12.2187 29.7875C12.8604 29.7875 13.5729 29.5729 14.2187 29.2875C15.2604 28.7375 15.8833 28.3083 16.5042 27.6208C16.3521 25.7771 17.9708 23.3583 20.3604 23.3583C21.4333 23.3583 22.2896 23.7854 22.3604 24.5729C22.5021 25.6437 21.575 25.7854 21.2896 25.7854C21.0042 25.7854 20.5021 25.7146 20.5021 25.4312C20.4312 25.1437 21.1458 25.2854 21.075 24.6437C21.0021 24.2146 20.575 24.0729 20.1458 24.0729C18.6458 24.0729 17.7896 26.1437 18.0021 27.4292C18.075 28.0021 18.3604 28.5729 18.9333 28.5729C19.3604 28.5729 20.0042 27.9271 20.2188 27C20.3604 26.3583 20.9333 25.9292 21.4333 25.9292C21.6458 25.9292 21.7875 26 21.8604 26.2854V26.5729C21.7896 26.8583 21.575 27.7146 21.6479 27.9292C21.6479 28.0729 21.7187 28.2854 22.0021 28.2854C22.1937 28.2854 22.9104 27.9104 23.6208 27.3292C23.8646 26.1 24.1479 24.625 24.1479 24.5021C24.2187 24.0021 24.4333 23.5021 25.4333 23.5021C25.6479 23.5021 25.7896 23.5729 25.8604 23.8583V24.1458L25.5771 25.4312C26.5042 24.2167 27.8625 23.3604 28.7187 23.3604C29.0771 23.3604 29.3625 23.5729 29.3625 23.9312C29.3625 24.1458 29.3625 24.5021 29.2187 24.8604C28.9333 25.6458 28.575 26.8604 28.3604 27.9312C28.3604 28.2167 28.4333 28.5021 28.7917 28.5021C29.1479 28.5021 30.2188 28.0729 31.075 26.9312L31.0896 26.9229C31.0854 26.7812 31.075 26.6437 31.075 26.5021C31.075 25.6458 31.1479 24.9312 31.2917 24.4312C31.4333 23.8604 32.1479 23.3604 32.5771 23.3604C32.7917 23.3604 33.0042 23.5042 33.0042 23.7167C33.0042 23.7896 33.0042 23.9312 32.9333 24.0021C32.6479 24.9312 32.4333 25.7875 32.4333 26.6458C32.4333 27.1458 32.5042 27.8583 32.6458 28.2875C32.6458 28.3583 32.7188 28.4312 32.7917 28.4312C32.9333 28.4312 33.9333 27.5042 34.6458 26.2896C34.0042 25.8604 33.6458 25.1458 33.6458 24.2896C33.6458 22.7896 34.575 22.0042 35.4333 22.0042C36.1479 22.0042 36.7188 22.5042 36.7188 23.5042C36.7188 24.1458 36.5042 24.8583 36.1479 25.5042H36.3604C36.587 25.5115 36.8126 25.4708 37.0224 25.3846C37.2321 25.2984 37.4211 25.1688 37.5771 25.0042C37.6426 24.8959 37.7402 24.8108 37.8562 24.7604C38.5542 23.875 39.5854 23.2188 40.7937 23.2188C41.7937 23.2188 42.7188 23.6458 42.7917 24.4312C42.9333 25.5042 42.0042 25.7188 41.7187 25.7188L41.7146 25.7146C41.4271 25.7146 40.9292 25.6417 40.9292 25.3562C40.9292 25.0708 41.5729 25.2146 41.5 24.5729C41.4292 24.1437 41 24 40.5708 24C39.1417 24 38.2167 25.8562 38.4292 27.3562C38.5 27.9292 38.7854 28.5708 39.3563 28.5708C39.7854 28.5708 40.4292 27.9292 40.7146 27C40.8562 26.4292 41.4292 25.9292 41.9292 25.9292C42.1437 25.9292 42.2833 26 42.3562 26.2854C42.3562 26.4292 42.3563 26.7146 42.0708 27.6437C41.7167 28.2854 41.7146 28.6437 41.7854 28.9292C41.8562 29.5 42.1417 29.9292 42.4292 30.1437C42.5 30.2146 42.5708 30.3562 42.5708 30.3562C42.5708 30.5 42.5 30.6437 42.2854 30.6437C42.2146 30.6437 42.1437 30.6437 42.0708 30.5708C41 30.1437 40.5708 29.4292 40.4271 28.7146C40 29.2146 39.5 29.5 38.9271 29.5C38 29.5 37.0729 28.6437 36.9271 27.5708C36.8862 27.1142 36.9393 26.654 37.0833 26.2188C36.6604 26.4896 36.2042 26.6417 35.7854 26.6417H35.4312C34.5 28 33.5 28.9292 32.7854 29.3562C32.5428 29.4854 32.2746 29.5594 32 29.5729C31.8583 29.5729 31.6437 29.5 31.5729 29.3562C31.375 29.0396 31.2479 28.5396 31.1708 27.9667C30.1687 29.0646 28.7854 29.6437 28.1437 29.6437C27.4292 29.6437 27.0021 29.2146 26.9312 28.4979V27.7146C27.1437 26.1437 27.7167 25.2146 27.7167 24.9292C27.7147 24.8915 27.699 24.8558 27.6725 24.8289C27.646 24.8021 27.6106 24.7858 27.5729 24.7833C27.0729 24.7833 25.4312 26.5 25.1437 27.6437L24.9292 28.5708C24.7875 29.2146 24.1437 29.6437 23.7167 29.6437C23.5021 29.6437 23.3583 29.5708 23.2875 29.2854V29L23.3833 28.5146C22.4771 29.1604 21.5708 29.5729 21.1437 29.5729C20.5021 29.5729 20.1437 29.2146 20.0729 28.7146C19.6437 29.2854 19.1458 29.5729 18.5021 29.5729C17.7687 29.5729 17.0521 29.0729 16.7062 28.3375C16.1979 28.9104 15.6167 29.4896 14.9312 29.9292C13.9312 30.5729 12.7896 31.0729 11.4312 31.0729C10.2188 31.0729 9.14583 30.4292 8.575 29.8583C7.71667 29.0729 7.21875 27.8583 7.14583 26.7146C6.71875 23.2146 8.86042 18.7146 12.1458 16.7146C12.9333 16.2875 13.7187 16 14.5042 16ZM34.8583 22.8562C34.6417 22.8562 34.5 23.2146 34.5 23.5708C34.5 24.1417 34.7854 24.7854 35.1437 25.1437C35.2834 24.754 35.3553 24.3432 35.3563 23.9292C35.3563 23.2146 35.0729 22.8562 34.8583 22.8562Z" fill="#F39F9F"/>
</g>
<defs>
<clipPath id="clip0_22_68">
<rect width="50" height="50" fill="white"/>
</clipPath>
</defs>
</svg>
