<svg width="103" height="104" viewBox="0 0 103 104" fill="none" xmlns="http://www.w3.org/2000/svg">
<g clip-path="url(#clip0_26_36)">
<path d="M92.4501 97.0445L93.2016 90.9328L93.9558 84.7982L87.8351 84.0456L87.0809 90.1803L86.3294 96.292L80.2316 95.5423L74.1109 94.7897L73.3567 100.924L79.4774 101.677L85.5752 102.427L91.6959 103.179L92.4501 97.0445Z" fill="white"/>
<path d="M82.4915 77.1612L81.7373 83.2959L87.835 84.0456L88.5893 77.9109L89.3407 71.7992L90.095 65.6646L83.9972 64.9148L83.2429 71.0495L82.4915 77.1612Z" fill="white"/>
<path d="M78.6309 58.0276L77.8767 64.1623L83.9974 64.9148L84.7516 58.7802L85.5031 52.6685L86.2573 46.5338L80.1366 45.7812L79.3824 51.9159L78.6309 58.0276Z" fill="white"/>
<path d="M74.7701 38.894L74.0158 45.0287L80.1365 45.7812L80.8908 39.6466L81.6422 33.5349L82.3965 27.4002L76.2758 26.6476L75.5215 32.7823L74.7701 38.894Z" fill="white"/>
<path d="M68.7416 87.9255L62.6438 87.1758L56.5231 86.4232L55.7717 92.5349L61.8924 93.2875L67.9902 94.0372L74.1109 94.7897L74.8623 88.678L68.7416 87.9255Z" fill="white"/>
<path d="M70.178 25.8979L76.2758 26.6477L77.0301 20.513L77.7815 14.4013L71.6837 13.6516L70.9323 19.7633L70.178 25.8979Z" fill="white"/>
<path d="M71.6837 13.6516L72.438 7.51688L66.3173 6.76434L65.563 12.899L71.6837 13.6516Z" fill="white"/>
<path d="M61.0431 49.6611L61.7974 43.5264L62.5516 37.3918L63.303 31.2801L64.0573 25.1454L64.8116 19.0107L65.563 12.899L59.4423 12.1465L58.6909 18.2582L57.9366 24.3929L57.1823 30.5275L56.4309 36.6392L55.6767 42.7739L54.9224 48.9086L54.171 55.0203L60.2917 55.7728L61.0431 49.6611Z" fill="white"/>
<path d="M51.1569 79.536L45.0591 78.7863L38.9384 78.0338L38.1842 84.1685L44.3049 84.921L50.4026 85.6707L56.5233 86.4233L57.2776 80.2886L51.1569 79.536Z" fill="white"/>
<path d="M33.5719 71.1466L27.4742 70.3969L21.3534 69.6443L20.5992 75.779L26.7199 76.5315L32.8177 77.2813L38.9384 78.0338L39.6926 71.8991L33.5719 71.1466Z" fill="white"/>
<path d="M22.859 57.3979L28.9797 58.1505L35.0775 58.9002L41.1982 59.6527L47.3189 60.4053L53.4166 61.155L54.1709 55.0203L48.0731 54.2706L41.9524 53.518L35.8317 52.7655L29.7339 52.0158L23.6132 51.2632L17.4925 50.5107L11.3947 49.761L10.6405 55.8957L16.7383 56.6454L22.859 57.3979Z" fill="white"/>
<path d="M15.984 62.7801L9.88626 62.0304L9.13483 68.1421L15.2326 68.8918L21.3533 69.6443L22.1047 63.5326L15.984 62.7801Z" fill="white"/>
<path d="M9.88637 62.0304L10.6406 55.8957L4.51992 55.1432L3.76567 61.2778L9.88637 62.0304Z" fill="white"/>
</g>
<defs>
<clipPath id="clip0_26_36">
<rect width="92.5973" height="92.3864" fill="white" transform="translate(102.996 11.2739) rotate(97.0093)"/>
</clipPath>
</defs>
</svg>
