<svg width="100" height="103" viewBox="0 0 100 103" fill="none" xmlns="http://www.w3.org/2000/svg">
<path d="M100 53C100 80.6142 77.6142 103 50 103C22.3858 103 0 80.6142 0 53C0 25.3858 22.3858 3 50 3C77.6142 3 100 25.3858 100 53Z" fill="url(#paint0_linear_81_218)"/>
<path d="M48.4621 24.8138C48.4621 25.2552 48.3103 25.6138 48.0069 25.8897C47.7034 26.1655 47.2759 26.3034 46.7241 26.3034C46.1724 26.3034 45.7448 26.1655 45.4414 25.8897C45.1379 25.6138 44.9862 25.2552 44.9862 24.8138C44.9862 24.4276 45.1379 24.0966 45.4414 23.8207C45.7448 23.5448 46.1724 23.4069 46.7241 23.4069C47.3034 23.4069 47.731 23.5448 48.0069 23.8207C48.3103 24.0966 48.4621 24.4276 48.4621 24.8138ZM45.4828 31.6C45.4828 31.1862 45.6207 30.869 45.8966 30.6483C46.1724 30.4 46.4207 30.2759 46.6414 30.2759C46.8621 30.2759 47.0414 30.3172 47.1793 30.4C47.3172 30.4552 47.4552 30.5517 47.5931 30.6897C47.8966 30.8828 48.0483 31.1862 48.0483 31.6V44.7586C48.0483 45.1724 47.9103 45.4897 47.6345 45.7103C47.3586 45.9034 47.0552 46 46.7241 46C46.3931 46 46.1034 45.9034 45.8552 45.7103C45.6069 45.4897 45.4828 45.1724 45.4828 44.7586V31.6Z" fill="black"/>
<path d="M7.10345 39.3793C6.46897 39.0759 6.15172 38.6759 6.15172 38.1793C6.15172 37.6 6.48276 37.1862 7.14483 36.9379L21.2138 30.9793C21.3241 30.9517 21.4897 30.9241 21.7103 30.8966C21.931 30.869 22.1517 30.9655 22.3724 31.1862C22.5931 31.4069 22.7034 31.6276 22.7034 31.8483C22.7034 32.2897 22.469 32.6207 22 32.8414L9.33793 38.1793L22.0414 43.8483C22.4828 44.0414 22.7034 44.3034 22.7034 44.6345C22.7034 44.9655 22.6069 45.2414 22.4138 45.4621C22.2207 45.6552 22.0138 45.7517 21.7931 45.7517C21.5724 45.7517 21.3931 45.7241 21.2552 45.669L7.10345 39.3793Z" fill="black"/>
<path d="M68.0414 36.9379C68.6759 37.2414 68.9931 37.6552 68.9931 38.1793C68.9931 38.7034 68.6621 39.1172 68 39.4207L53.9724 45.3793C53.8069 45.4069 53.6138 45.4345 53.3931 45.4621C53.2 45.4897 53.0069 45.3931 52.8138 45.1724C52.6483 44.9517 52.5655 44.7034 52.5655 44.4276C52.5655 43.9862 52.7586 43.6828 53.1448 43.5172L65.8069 38.1793L53.1034 32.5103C52.6897 32.3172 52.4828 32.0552 52.4828 31.7241C52.4828 31.3931 52.5793 31.131 52.7724 30.9379C52.9655 30.7172 53.1724 30.6069 53.3931 30.6069C53.6138 30.6069 53.8069 30.6345 53.9724 30.6897L68.0414 36.9379Z" fill="black"/>
<path d="M67.6391 75.6069C67.6391 76.1218 67.3448 76.4038 66.7563 76.4529H56.6782C56.7762 78.954 57.7571 80.5724 59.6207 81.308C60.1356 81.4797 60.7241 81.5655 61.3862 81.5655C62.7594 81.5655 64.1571 81.0628 65.5793 80.0575C66.0207 79.8123 66.3885 79.8368 66.6828 80.131C66.8299 80.2782 66.8789 80.4253 66.8299 80.5724C66.8299 80.9157 66.7441 81.1609 66.5724 81.308C65.2238 82.6567 63.446 83.3188 61.2391 83.2943C59.2284 83.2943 57.61 82.6444 56.3839 81.3448C55.0107 79.9962 54.3241 78.2184 54.3241 76.0115C54.3241 73.9762 54.8881 72.2966 56.0161 70.9724C57.1931 69.5011 58.8605 68.7655 61.0184 68.7655C63.1762 68.7655 64.8192 69.4153 65.9471 70.7149C67.0261 71.892 67.59 73.5226 67.6391 75.6069ZM65.469 74.9448C65.3954 73.6207 64.9663 72.5295 64.1816 71.6713C63.446 70.8866 62.3916 70.4943 61.0184 70.4943C59.8414 70.4943 58.836 70.9356 58.0023 71.8184C57.2421 72.7011 56.8253 73.7433 56.7517 74.9448H65.469ZM78.144 81.308C77.8988 81.8966 77.629 82.3257 77.3348 82.5954C77.065 82.8651 76.6727 83 76.1578 83C75.6428 83 75.2382 82.8774 74.944 82.6322C74.6742 82.3625 74.4413 81.9211 74.2451 81.308L69.6474 70.4943C69.4267 70.0774 69.5371 69.7096 69.9784 69.3908C70.2237 69.1946 70.4689 69.072 70.7141 69.023C71.2535 69.023 71.5968 69.2927 71.744 69.8322L76.1578 80.4253L80.4244 69.8322C80.5961 69.3418 80.9148 69.072 81.3807 69.023C81.8712 69.023 82.239 69.2314 82.4842 69.6483C82.5823 69.7954 82.6191 69.9425 82.5945 70.0897C82.57 70.2123 82.5332 70.3471 82.4842 70.4943L78.144 81.308Z" fill="black"/>
<mask id="path-6-outside-1_81_218" maskUnits="userSpaceOnUse" x="24" y="18" width="20" height="30" fill="black">
<rect fill="white" x="24" y="18" width="20" height="30"/>
<path d="M42.604 44.388C42.604 44.988 42.556 45.408 42.46 45.648C42.388 45.888 42.28 46.02 42.136 46.044C41.992 46.068 41.68 46.08 41.2 46.08L40.588 46.044C40.18 46.044 39.808 46.056 39.472 46.08C37.936 46.128 35.8 46.152 33.064 46.152C30.424 46.152 28.288 46.14 26.656 46.116V45.396H25.936V44.388C26.104 41.004 26.188 37.02 26.188 32.436C26.188 27.3 26.14 22.968 26.044 19.44C26.356 19.32 26.788 19.224 27.34 19.152C27.916 19.056 28.492 19.008 29.068 19.008C30.508 19.008 31.66 19.2 32.524 19.584L32.488 20.052C32.608 20.1 32.728 20.148 32.848 20.196C32.968 20.22 33.1 20.256 33.244 20.304C33.196 22.032 33.172 23.46 33.172 24.588C33.172 26.028 33.196 28.188 33.244 31.068L33.28 37.44V38.88C36.544 39.072 38.92 39.168 40.408 39.168C40.864 39.168 41.356 39.144 41.884 39.096V39.888L42.604 39.816C42.604 40.32 42.58 40.812 42.532 41.292L42.496 42.048L42.532 42.408V42.444L42.604 44.388ZM41.416 41.364C41.416 41.172 41.44 40.86 41.488 40.428L41.524 39.528C41.476 39.552 41.296 39.564 40.984 39.564C40.528 39.564 39.388 39.516 37.564 39.42C37.132 39.396 36.436 39.36 35.476 39.312C34.54 39.264 33.808 39.24 33.28 39.24C32.896 39.24 32.536 39.264 32.2 39.312V39.276L32.236 36.468C32.236 35.148 32.212 33.096 32.164 30.312C32.116 27.576 32.092 25.512 32.092 24.12C32.092 23.112 32.116 21.672 32.164 19.8C31.492 19.512 30.46 19.368 29.068 19.368C28.516 19.368 27.988 19.404 27.484 19.476C27.004 19.524 26.644 19.596 26.404 19.692C26.5 24.468 26.548 28.716 26.548 32.436C26.548 37.02 26.464 41.004 26.296 44.388V45.036C26.992 45.036 27.496 45.048 27.808 45.072L32.74 45.108C34.66 45.108 36.736 45.072 38.968 45C39.256 44.976 39.592 44.964 39.976 44.964L40.768 45C41.08 45 41.284 44.928 41.38 44.784C41.476 44.64 41.524 44.268 41.524 43.668L41.452 41.724L41.416 41.364Z"/>
</mask>
<path d="M42.604 44.388C42.604 44.988 42.556 45.408 42.46 45.648C42.388 45.888 42.28 46.02 42.136 46.044C41.992 46.068 41.68 46.08 41.2 46.08L40.588 46.044C40.18 46.044 39.808 46.056 39.472 46.08C37.936 46.128 35.8 46.152 33.064 46.152C30.424 46.152 28.288 46.14 26.656 46.116V45.396H25.936V44.388C26.104 41.004 26.188 37.02 26.188 32.436C26.188 27.3 26.14 22.968 26.044 19.44C26.356 19.32 26.788 19.224 27.34 19.152C27.916 19.056 28.492 19.008 29.068 19.008C30.508 19.008 31.66 19.2 32.524 19.584L32.488 20.052C32.608 20.1 32.728 20.148 32.848 20.196C32.968 20.22 33.1 20.256 33.244 20.304C33.196 22.032 33.172 23.46 33.172 24.588C33.172 26.028 33.196 28.188 33.244 31.068L33.28 37.44V38.88C36.544 39.072 38.92 39.168 40.408 39.168C40.864 39.168 41.356 39.144 41.884 39.096V39.888L42.604 39.816C42.604 40.32 42.58 40.812 42.532 41.292L42.496 42.048L42.532 42.408V42.444L42.604 44.388ZM41.416 41.364C41.416 41.172 41.44 40.86 41.488 40.428L41.524 39.528C41.476 39.552 41.296 39.564 40.984 39.564C40.528 39.564 39.388 39.516 37.564 39.42C37.132 39.396 36.436 39.36 35.476 39.312C34.54 39.264 33.808 39.24 33.28 39.24C32.896 39.24 32.536 39.264 32.2 39.312V39.276L32.236 36.468C32.236 35.148 32.212 33.096 32.164 30.312C32.116 27.576 32.092 25.512 32.092 24.12C32.092 23.112 32.116 21.672 32.164 19.8C31.492 19.512 30.46 19.368 29.068 19.368C28.516 19.368 27.988 19.404 27.484 19.476C27.004 19.524 26.644 19.596 26.404 19.692C26.5 24.468 26.548 28.716 26.548 32.436C26.548 37.02 26.464 41.004 26.296 44.388V45.036C26.992 45.036 27.496 45.048 27.808 45.072L32.74 45.108C34.66 45.108 36.736 45.072 38.968 45C39.256 44.976 39.592 44.964 39.976 44.964L40.768 45C41.08 45 41.284 44.928 41.38 44.784C41.476 44.64 41.524 44.268 41.524 43.668L41.452 41.724L41.416 41.364Z" fill="black"/>
<path d="M42.604 44.388H43.604V44.3695L43.6033 44.351L42.604 44.388ZM42.46 45.648L41.5315 45.2766L41.515 45.318L41.5022 45.3607L42.46 45.648ZM42.136 46.044L41.9716 45.0576L41.9716 45.0576L42.136 46.044ZM41.2 46.08L41.1413 47.0783L41.1706 47.08H41.2V46.08ZM40.588 46.044L40.6467 45.0457L40.6174 45.044H40.588V46.044ZM39.472 46.08L39.5032 47.0795L39.5233 47.0789L39.5432 47.0775L39.472 46.08ZM26.656 46.116H25.656V47.1014L26.6413 47.1159L26.656 46.116ZM26.656 45.396H27.656V44.396H26.656V45.396ZM25.936 45.396H24.936V46.396H25.936V45.396ZM25.936 44.388L24.9372 44.3384L24.936 44.3632V44.388H25.936ZM26.044 19.44L25.685 18.5067L25.0251 18.7605L25.0444 19.4672L26.044 19.44ZM27.34 19.152L27.4693 20.1436L27.4869 20.1413L27.5044 20.1384L27.34 19.152ZM32.524 19.584L33.5211 19.6607L33.5752 18.9569L32.9301 18.6702L32.524 19.584ZM32.488 20.052L31.4909 19.9753L31.4346 20.7077L32.1166 20.9805L32.488 20.052ZM32.848 20.196L32.4766 21.1245L32.5619 21.1586L32.6519 21.1766L32.848 20.196ZM33.244 20.304L34.2436 20.3318L34.2642 19.59L33.5602 19.3553L33.244 20.304ZM33.244 31.068L34.244 31.0623L34.2439 31.0513L33.244 31.068ZM33.28 37.44H34.28L34.28 37.4344L33.28 37.44ZM33.28 38.88H32.28V39.8229L33.2213 39.8783L33.28 38.88ZM41.884 39.096H42.884V38.001L41.7935 38.1001L41.884 39.096ZM41.884 39.888H40.884V40.993L41.9835 40.883L41.884 39.888ZM42.604 39.816H43.604V38.711L42.5045 38.821L42.604 39.816ZM42.532 41.292L41.537 41.1925L41.5344 41.2184L41.5331 41.2444L42.532 41.292ZM42.496 42.048L41.4971 42.0004L41.4936 42.0741L41.501 42.1475L42.496 42.048ZM42.532 42.408H43.532V42.3581L43.527 42.3085L42.532 42.408ZM42.532 42.444H41.532V42.4625L41.5327 42.481L42.532 42.444ZM41.416 41.364H40.416V41.4139L40.421 41.4635L41.416 41.364ZM41.488 40.428L42.4819 40.5384L42.4858 40.5033L42.4872 40.468L41.488 40.428ZM41.524 39.528L42.5232 39.568L42.5909 37.8765L41.0768 38.6336L41.524 39.528ZM37.564 39.42L37.5085 40.4185L37.5114 40.4186L37.564 39.42ZM35.476 39.312L35.4248 40.3107L35.4261 40.3108L35.476 39.312ZM32.2 39.312H31.2V40.465L32.3414 40.3019L32.2 39.312ZM32.2 39.276L31.2 39.2632V39.276H32.2ZM32.236 36.468L33.236 36.4808V36.468H32.236ZM32.164 30.312L33.1639 30.2948L33.1638 30.2945L32.164 30.312ZM32.164 19.8L33.1637 19.8256L33.181 19.1479L32.5579 18.8809L32.164 19.8ZM27.484 19.476L27.5835 20.471L27.6045 20.4689L27.6254 20.4659L27.484 19.476ZM26.404 19.692L26.0326 18.7635L25.3903 19.0204L25.4042 19.7121L26.404 19.692ZM26.296 44.388L25.2972 44.3384L25.296 44.3632V44.388H26.296ZM26.296 45.036H25.296V46.036H26.296V45.036ZM27.808 45.072L27.7313 46.0691L27.766 46.0717L27.8007 46.072L27.808 45.072ZM32.74 45.108L32.7327 46.108H32.74V45.108ZM38.968 45L39.0002 45.9995L39.0257 45.9987L39.051 45.9965L38.968 45ZM39.976 44.964L40.0214 43.965L39.9987 43.964H39.976V44.964ZM40.768 45L40.7226 45.999L40.7453 46H40.768V45ZM41.38 44.784L40.548 44.2293L40.5479 44.2293L41.38 44.784ZM41.524 43.668H42.524V43.6495L42.5233 43.631L41.524 43.668ZM41.452 41.724L42.4513 41.687L42.4502 41.6557L42.447 41.6245L41.452 41.724ZM41.604 44.388C41.604 44.6644 41.5928 44.8791 41.5745 45.0395C41.5654 45.1189 41.5553 45.1784 41.546 45.2211C41.5364 45.265 41.5299 45.2807 41.5315 45.2766L43.3885 46.0194C43.5626 45.5841 43.604 44.9909 43.604 44.388H41.604ZM41.5022 45.3607C41.4878 45.4084 41.492 45.3659 41.551 45.2938C41.6233 45.2054 41.7649 45.0921 41.9716 45.0576L42.3004 47.0304C43.0388 46.9073 43.319 46.2647 43.4178 45.9353L41.5022 45.3607ZM41.9716 45.0576C41.9752 45.057 41.9602 45.0595 41.9178 45.0629C41.878 45.066 41.8246 45.0691 41.7556 45.0717C41.6172 45.0771 41.4332 45.08 41.2 45.08V47.08C41.6603 47.08 42.0594 47.0706 42.3004 47.0304L41.9716 45.0576ZM41.2587 45.0817L40.6467 45.0457L40.5293 47.0423L41.1413 47.0783L41.2587 45.0817ZM40.588 45.044C40.161 45.044 39.7648 45.0565 39.4008 45.0825L39.5432 47.0775C39.8512 47.0555 40.199 47.044 40.588 47.044V45.044ZM39.4408 45.0805C37.9202 45.128 35.7963 45.152 33.064 45.152V47.152C35.8037 47.152 37.9518 47.128 39.5032 47.0795L39.4408 45.0805ZM33.064 45.152C30.4263 45.152 28.2958 45.14 26.6707 45.1161L26.6413 47.1159C28.2802 47.14 30.4217 47.152 33.064 47.152V45.152ZM27.656 46.116V45.396H25.656V46.116H27.656ZM26.656 44.396H25.936V46.396H26.656V44.396ZM26.936 45.396V44.388H24.936V45.396H26.936ZM26.9348 44.4376C27.1038 41.0325 27.188 37.0312 27.188 32.436H25.188C25.188 37.0088 25.1042 40.9755 24.9372 44.3384L26.9348 44.4376ZM27.188 32.436C27.188 27.2946 27.14 22.9529 27.0436 19.4128L25.0444 19.4672C25.14 22.9831 25.188 27.3054 25.188 32.436H27.188ZM26.403 20.3733C26.6084 20.2944 26.9513 20.2112 27.4693 20.1436L27.2107 18.1604C26.6247 18.2368 26.1036 18.3456 25.685 18.5067L26.403 20.3733ZM27.5044 20.1384C28.0268 20.0513 28.5478 20.008 29.068 20.008V18.008C28.4362 18.008 27.8052 18.0607 27.1756 18.1656L27.5044 20.1384ZM29.068 20.008C30.4342 20.008 31.4308 20.1924 32.1179 20.4978L32.9301 18.6702C31.8892 18.2076 30.5818 18.008 29.068 18.008V20.008ZM31.5269 19.5073L31.4909 19.9753L33.4851 20.1287L33.5211 19.6607L31.5269 19.5073ZM32.1166 20.9805C32.2366 21.0285 32.3566 21.0765 32.4766 21.1245L33.2194 19.2675C33.0994 19.2195 32.9794 19.1715 32.8594 19.1235L32.1166 20.9805ZM32.6519 21.1766C32.7229 21.1908 32.8142 21.2148 32.9278 21.2527L33.5602 19.3553C33.3858 19.2972 33.2131 19.2492 33.0441 19.2154L32.6519 21.1766ZM32.2444 20.2762C32.1962 22.0092 32.172 23.4473 32.172 24.588H34.172C34.172 23.4727 34.1958 22.0548 34.2436 20.3318L32.2444 20.2762ZM32.172 24.588C32.172 26.0366 32.1961 28.2034 32.2441 31.0847L34.2439 31.0513C34.1959 28.1726 34.172 26.0194 34.172 24.588H32.172ZM32.244 31.0736L32.28 37.4456L34.28 37.4344L34.244 31.0623L32.244 31.0736ZM32.28 37.44V38.88H34.28V37.44H32.28ZM33.2213 39.8783C36.4874 40.0704 38.8885 40.168 40.408 40.168V38.168C38.9515 38.168 36.6006 38.0736 33.3387 37.8817L33.2213 39.8783ZM40.408 40.168C40.8986 40.168 41.4211 40.1422 41.9745 40.0919L41.7935 38.1001C41.2909 38.1458 40.8294 38.168 40.408 38.168V40.168ZM40.884 39.096V39.888H42.884V39.096H40.884ZM41.9835 40.883L42.7035 40.811L42.5045 38.821L41.7845 38.893L41.9835 40.883ZM41.604 39.816C41.604 40.2882 41.5815 40.747 41.537 41.1925L43.527 41.3915C43.5785 40.877 43.604 40.3518 43.604 39.816H41.604ZM41.5331 41.2444L41.4971 42.0004L43.4949 42.0956L43.5309 41.3396L41.5331 41.2444ZM41.501 42.1475L41.537 42.5075L43.527 42.3085L43.491 41.9485L41.501 42.1475ZM41.532 42.408V42.444H43.532V42.408H41.532ZM41.5327 42.481L41.6047 44.425L43.6033 44.351L43.5313 42.407L41.5327 42.481ZM42.416 41.364C42.416 41.232 42.4342 40.9677 42.4819 40.5384L40.4941 40.3176C40.4458 40.7523 40.416 41.112 40.416 41.364H42.416ZM42.4872 40.468L42.5232 39.568L40.5248 39.488L40.4888 40.388L42.4872 40.468ZM41.0768 38.6336C41.1206 38.6117 41.1581 38.5972 41.1841 38.5882C41.2108 38.5788 41.2331 38.5725 41.2489 38.5684C41.2793 38.5606 41.3006 38.557 41.3073 38.556C41.3201 38.554 41.3162 38.5552 41.2865 38.5572C41.2595 38.559 41.221 38.5608 41.1689 38.562C41.1173 38.5633 41.0559 38.564 40.984 38.564V40.564C41.1487 40.564 41.2971 40.5609 41.4195 40.5528C41.4798 40.5488 41.5495 40.5425 41.6192 40.5315C41.6601 40.5251 41.8118 40.5021 41.9712 40.4224L41.0768 38.6336ZM40.984 38.564C40.5603 38.564 39.4504 38.5179 37.6166 38.4214L37.5114 40.4186C39.3256 40.5141 40.4957 40.564 40.984 40.564V38.564ZM37.6195 38.4215C37.1845 38.3974 36.4861 38.3613 35.5259 38.3132L35.4261 40.3108C36.3859 40.3587 37.0795 40.3946 37.5085 40.4185L37.6195 38.4215ZM35.5272 38.3133C34.585 38.265 33.8333 38.24 33.28 38.24V40.24C33.7827 40.24 34.495 40.263 35.4248 40.3107L35.5272 38.3133ZM33.28 38.24C32.8547 38.24 32.447 38.2666 32.0586 38.3221L32.3414 40.3019C32.625 40.2614 32.9373 40.24 33.28 40.24V38.24ZM33.2 39.312V39.276H31.2V39.312H33.2ZM33.1999 39.2888L33.2359 36.4808L31.2361 36.4552L31.2001 39.2632L33.1999 39.2888ZM33.236 36.468C33.236 35.1389 33.2119 33.0797 33.1639 30.2948L31.1641 30.3292C31.2121 33.1123 31.236 35.1571 31.236 36.468H33.236ZM33.1638 30.2945C33.1159 27.5599 33.092 25.503 33.092 24.12H31.092C31.092 25.521 31.1161 27.5921 31.1642 30.3295L33.1638 30.2945ZM33.092 24.12C33.092 23.1249 33.1157 21.695 33.1637 19.8256L31.1643 19.7744C31.1163 21.649 31.092 23.0991 31.092 24.12H33.092ZM32.5579 18.8809C31.6941 18.5106 30.4951 18.368 29.068 18.368V20.368C30.4249 20.368 31.2899 20.5134 31.7701 20.7191L32.5579 18.8809ZM29.068 18.368C28.4726 18.368 27.8971 18.4068 27.3426 18.486L27.6254 20.4659C28.0789 20.4012 28.5594 20.368 29.068 20.368V18.368ZM27.3845 18.481C26.877 18.5317 26.405 18.6146 26.0326 18.7635L26.7754 20.6205C26.883 20.5774 27.131 20.5163 27.5835 20.471L27.3845 18.481ZM25.4042 19.7121C25.5001 24.4832 25.548 28.7243 25.548 32.436H27.548C27.548 28.7077 27.4999 24.4528 27.4038 19.6719L25.4042 19.7121ZM25.548 32.436C25.548 37.0088 25.4642 40.9755 25.2972 44.3384L27.2948 44.4376C27.4638 41.0325 27.548 37.0312 27.548 32.436H25.548ZM25.296 44.388V45.036H27.296V44.388H25.296ZM26.296 46.036C26.9896 46.036 27.4605 46.0482 27.7313 46.0691L27.8847 44.0749C27.5315 44.0478 26.9944 44.036 26.296 44.036V46.036ZM27.8007 46.072L32.7327 46.108L32.7473 44.108L27.8153 44.072L27.8007 46.072ZM32.74 46.108C34.6723 46.108 36.7592 46.0718 39.0002 45.9995L38.9358 44.0005C36.7128 44.0722 34.6477 44.108 32.74 44.108V46.108ZM39.051 45.9965C39.3042 45.9755 39.6113 45.964 39.976 45.964V43.964C39.5727 43.964 39.2078 43.9765 38.885 44.0035L39.051 45.9965ZM39.9306 45.963L40.7226 45.999L40.8134 44.001L40.0214 43.965L39.9306 45.963ZM40.768 46C41.1526 46 41.8216 45.9244 42.2121 45.3387L40.5479 44.2293C40.6472 44.0804 40.7719 44.0207 40.8222 44.003C40.8631 43.9886 40.8564 44 40.768 44V46ZM42.2121 45.3387C42.3987 45.0588 42.4539 44.7255 42.4798 44.525C42.5115 44.2792 42.524 43.9887 42.524 43.668H40.524C40.524 43.9473 40.5125 44.1428 40.4962 44.269C40.4881 44.3317 40.481 44.3603 40.4798 44.3645C40.4764 44.3766 40.4906 44.3154 40.548 44.2293L42.2121 45.3387ZM42.5233 43.631L42.4513 41.687L40.4527 41.761L40.5247 43.705L42.5233 43.631ZM42.447 41.6245L42.411 41.2645L40.421 41.4635L40.457 41.8235L42.447 41.6245Z" fill="black" mask="url(#path-6-outside-1_81_218)"/>
<mask id="path-8-outside-2_81_218" maskUnits="userSpaceOnUse" x="36" y="58" width="19" height="27" fill="black">
<rect fill="white" x="36" y="58" width="19" height="27"/>
<path d="M50.472 62.736C51.3893 64.1227 52.0507 65.7227 52.456 67.536L52.424 67.504C52.5947 68.016 52.7013 68.7307 52.744 69.648L52.648 71.472C52.6053 73.2853 52.488 74.6613 52.296 75.6C51.848 76.9013 51.2613 78.128 50.536 79.28C49.832 80.432 49 81.6053 48.04 82.8C45.992 82.864 43.8053 82.896 41.48 82.896C40.9253 82.9173 40.1467 82.928 39.144 82.928L39.048 82.256L38.504 82.288C38.12 79.4933 37.928 75.92 37.928 71.568C37.928 69.7547 37.9387 68.3893 37.96 67.472L37.992 63.12C37.992 61.7333 37.9813 60.6987 37.96 60.016C37.96 59.9733 37.9707 59.9413 37.992 59.92C38.0347 59.8133 38.1093 59.7067 38.216 59.6C38.7707 59.4507 39.3253 59.3547 39.88 59.312C40.456 59.248 41.128 59.216 41.896 59.216C42.5573 59.216 43.0587 59.2267 43.4 59.248L44.872 59.28C45.4267 59.28 45.8427 59.2693 46.12 59.248C46.9733 59.504 47.816 59.9733 48.648 60.656C49.48 61.3173 50.0987 62.0107 50.504 62.736H50.472ZM45.16 59.6C44.4773 59.6 43.9547 59.5893 43.592 59.568L41.992 59.536C40.52 59.536 39.3147 59.6533 38.376 59.888L38.28 60.016C38.3013 60.6987 38.312 61.7227 38.312 63.088L38.28 67.44C38.2587 68.3787 38.248 69.7973 38.248 71.696C38.248 73.8293 38.28 75.7067 38.344 77.328C38.4293 78.9493 38.5787 80.496 38.792 81.968L38.824 81.936C42.5573 81.936 45.3627 81.904 47.24 81.84C48.2213 80.624 49.0427 79.4827 49.704 78.416C50.3867 77.3493 50.92 76.2293 51.304 75.056L51.336 74.992C51.5493 73.8613 51.6773 72.336 51.72 70.416L51.784 68.976C51.72 67.824 51.496 66.6613 51.112 65.488C50.728 64.3147 50.216 63.2373 49.576 62.256C49.192 61.616 48.68 61.0507 48.04 60.56C47.4213 60.0693 46.7707 59.7387 46.088 59.568L45.16 59.6ZM45.064 75.088C44.7013 75.152 44.328 75.184 43.944 75.184C43.4533 75.184 43.1013 75.088 42.888 74.896C42.8453 73.9147 42.824 73.1573 42.824 72.624L42.856 70.48C42.8773 70.032 42.888 69.392 42.888 68.56C42.888 68.0693 42.8667 67.4187 42.824 66.608V66.48H42.92C43.304 66.416 43.7093 66.384 44.136 66.384C45.416 66.384 46.3013 66.8533 46.792 67.792C47.2827 68.7093 47.528 69.7867 47.528 71.024C47.528 71.984 47.2293 72.9333 46.632 73.872C46.4187 74.192 46.1733 74.48 45.896 74.736C45.6187 74.9707 45.3627 75.088 45.128 75.088H45.064ZM46.376 73.712C46.9307 72.88 47.208 71.984 47.208 71.024C47.208 70.5547 47.1227 69.9893 46.952 69.328C46.7813 68.6453 46.5467 68.0587 46.248 67.568L45.928 67.408C45.416 67.3653 45.032 67.344 44.776 67.344C44.584 67.344 44.2533 67.3653 43.784 67.408C43.8267 68.2187 43.848 68.8907 43.848 69.424L43.816 71.888C43.7733 72.9973 43.752 73.8187 43.752 74.352L43.784 74.864H43.944C44.1787 74.864 44.4027 74.8533 44.616 74.832C44.8293 74.7893 44.9893 74.768 45.096 74.768L45.16 74.8C45.224 74.8 45.3413 74.736 45.512 74.608H45.48C45.8 74.416 46.0987 74.1067 46.376 73.68V73.712Z"/>
</mask>
<path d="M50.472 62.736C51.3893 64.1227 52.0507 65.7227 52.456 67.536L52.424 67.504C52.5947 68.016 52.7013 68.7307 52.744 69.648L52.648 71.472C52.6053 73.2853 52.488 74.6613 52.296 75.6C51.848 76.9013 51.2613 78.128 50.536 79.28C49.832 80.432 49 81.6053 48.04 82.8C45.992 82.864 43.8053 82.896 41.48 82.896C40.9253 82.9173 40.1467 82.928 39.144 82.928L39.048 82.256L38.504 82.288C38.12 79.4933 37.928 75.92 37.928 71.568C37.928 69.7547 37.9387 68.3893 37.96 67.472L37.992 63.12C37.992 61.7333 37.9813 60.6987 37.96 60.016C37.96 59.9733 37.9707 59.9413 37.992 59.92C38.0347 59.8133 38.1093 59.7067 38.216 59.6C38.7707 59.4507 39.3253 59.3547 39.88 59.312C40.456 59.248 41.128 59.216 41.896 59.216C42.5573 59.216 43.0587 59.2267 43.4 59.248L44.872 59.28C45.4267 59.28 45.8427 59.2693 46.12 59.248C46.9733 59.504 47.816 59.9733 48.648 60.656C49.48 61.3173 50.0987 62.0107 50.504 62.736H50.472ZM45.16 59.6C44.4773 59.6 43.9547 59.5893 43.592 59.568L41.992 59.536C40.52 59.536 39.3147 59.6533 38.376 59.888L38.28 60.016C38.3013 60.6987 38.312 61.7227 38.312 63.088L38.28 67.44C38.2587 68.3787 38.248 69.7973 38.248 71.696C38.248 73.8293 38.28 75.7067 38.344 77.328C38.4293 78.9493 38.5787 80.496 38.792 81.968L38.824 81.936C42.5573 81.936 45.3627 81.904 47.24 81.84C48.2213 80.624 49.0427 79.4827 49.704 78.416C50.3867 77.3493 50.92 76.2293 51.304 75.056L51.336 74.992C51.5493 73.8613 51.6773 72.336 51.72 70.416L51.784 68.976C51.72 67.824 51.496 66.6613 51.112 65.488C50.728 64.3147 50.216 63.2373 49.576 62.256C49.192 61.616 48.68 61.0507 48.04 60.56C47.4213 60.0693 46.7707 59.7387 46.088 59.568L45.16 59.6ZM45.064 75.088C44.7013 75.152 44.328 75.184 43.944 75.184C43.4533 75.184 43.1013 75.088 42.888 74.896C42.8453 73.9147 42.824 73.1573 42.824 72.624L42.856 70.48C42.8773 70.032 42.888 69.392 42.888 68.56C42.888 68.0693 42.8667 67.4187 42.824 66.608V66.48H42.92C43.304 66.416 43.7093 66.384 44.136 66.384C45.416 66.384 46.3013 66.8533 46.792 67.792C47.2827 68.7093 47.528 69.7867 47.528 71.024C47.528 71.984 47.2293 72.9333 46.632 73.872C46.4187 74.192 46.1733 74.48 45.896 74.736C45.6187 74.9707 45.3627 75.088 45.128 75.088H45.064ZM46.376 73.712C46.9307 72.88 47.208 71.984 47.208 71.024C47.208 70.5547 47.1227 69.9893 46.952 69.328C46.7813 68.6453 46.5467 68.0587 46.248 67.568L45.928 67.408C45.416 67.3653 45.032 67.344 44.776 67.344C44.584 67.344 44.2533 67.3653 43.784 67.408C43.8267 68.2187 43.848 68.8907 43.848 69.424L43.816 71.888C43.7733 72.9973 43.752 73.8187 43.752 74.352L43.784 74.864H43.944C44.1787 74.864 44.4027 74.8533 44.616 74.832C44.8293 74.7893 44.9893 74.768 45.096 74.768L45.16 74.8C45.224 74.8 45.3413 74.736 45.512 74.608H45.48C45.8 74.416 46.0987 74.1067 46.376 73.68V73.712Z" fill="black"/>
<path d="M50.472 62.736V61.736H48.6115L49.638 63.2877L50.472 62.736ZM52.456 67.536L51.7489 68.2431L54.1828 70.677L53.4319 67.3179L52.456 67.536ZM52.424 67.504L53.1311 66.7969L51.4753 67.8202L52.424 67.504ZM52.744 69.648L53.7426 69.7006L53.7452 69.6511L53.7429 69.6015L52.744 69.648ZM52.648 71.472L51.6494 71.4194L51.6486 71.434L51.6483 71.4485L52.648 71.472ZM52.296 75.6L53.2415 75.9255L53.2627 75.8641L53.2757 75.8004L52.296 75.6ZM50.536 79.28L49.6897 78.7471L49.6827 78.7586L50.536 79.28ZM48.04 82.8L48.0712 83.7995L48.5312 83.7851L48.8195 83.4264L48.04 82.8ZM41.48 82.896V81.896H41.4608L41.4416 81.8967L41.48 82.896ZM39.144 82.928L38.1541 83.0694L38.2767 83.928H39.144V82.928ZM39.048 82.256L40.0379 82.1146L39.9078 81.2037L38.9893 81.2577L39.048 82.256ZM38.504 82.288L37.5133 82.4241L37.6392 83.3406L38.5627 83.2863L38.504 82.288ZM37.96 67.472L38.9597 67.4952L38.9599 67.4873L38.96 67.4794L37.96 67.472ZM37.992 63.12L38.992 63.1274V63.12H37.992ZM37.96 60.016H36.96V60.0316L36.9605 60.0472L37.96 60.016ZM37.992 59.92L38.6991 60.6271L38.8443 60.482L38.9205 60.2914L37.992 59.92ZM38.216 59.6L37.956 58.6344L37.6979 58.7039L37.5089 58.8929L38.216 59.6ZM39.88 59.312L39.9567 60.3091L39.9736 60.3078L39.9904 60.3059L39.88 59.312ZM43.4 59.248L43.3376 60.2461L43.3579 60.2473L43.3783 60.2478L43.4 59.248ZM44.872 59.28L44.8503 60.2798L44.8611 60.28H44.872V59.28ZM46.12 59.248L46.4073 58.2902L46.229 58.2367L46.0433 58.2509L46.12 59.248ZM48.648 60.656L48.0137 61.4291L48.0197 61.434L48.0258 61.4388L48.648 60.656ZM50.504 62.736V63.736H52.2084L51.3769 62.2482L50.504 62.736ZM45.16 59.6V60.6H45.1772L45.1945 60.5994L45.16 59.6ZM43.592 59.568L43.6507 58.5697L43.6314 58.5686L43.612 58.5682L43.592 59.568ZM41.992 59.536L42.012 58.5362L42.002 58.536H41.992V59.536ZM38.376 59.888L38.1335 58.9179L37.789 59.004L37.576 59.288L38.376 59.888ZM38.28 60.016L37.48 59.416L37.2695 59.6966L37.2805 60.0472L38.28 60.016ZM38.312 63.088L39.312 63.0954V63.088H38.312ZM38.28 67.44L39.2797 67.4627L39.2799 67.455L39.28 67.4474L38.28 67.44ZM38.344 77.328L37.3447 77.3674L37.3454 77.3806L38.344 77.328ZM38.792 81.968L37.8023 82.1114L38.0885 84.0857L39.4991 82.6751L38.792 81.968ZM38.824 81.936V80.936H38.4098L38.1169 81.2289L38.824 81.936ZM47.24 81.84L47.2741 82.8394L47.731 82.8238L48.0182 82.468L47.24 81.84ZM49.704 78.416L48.8617 77.8769L48.8579 77.883L48.8541 77.8891L49.704 78.416ZM51.304 75.056L50.4096 74.6088L50.3766 74.6748L50.3536 74.745L51.304 75.056ZM51.336 74.992L52.2304 75.4392L52.2928 75.3145L52.3187 75.1774L51.336 74.992ZM51.72 70.416L50.721 70.3716L50.7205 70.3827L50.7202 70.3938L51.72 70.416ZM51.784 68.976L52.783 69.0204L52.7852 68.9705L52.7825 68.9205L51.784 68.976ZM49.576 62.256L48.7185 62.7705L48.7282 62.7866L48.7384 62.8023L49.576 62.256ZM48.04 60.56L47.4186 61.3435L47.425 61.3486L47.4316 61.3536L48.04 60.56ZM46.088 59.568L46.3305 58.5979L46.1941 58.5637L46.0535 58.5686L46.088 59.568ZM45.064 75.088V74.088H44.9764L44.8902 74.1032L45.064 75.088ZM42.888 74.896L41.8889 74.9394L41.9072 75.3586L42.219 75.6393L42.888 74.896ZM42.824 72.624L41.8241 72.6091L41.824 72.6165V72.624H42.824ZM42.856 70.48L41.8571 70.4324L41.8564 70.4487L41.8561 70.4651L42.856 70.48ZM42.824 66.608H41.824V66.6343L41.8254 66.6606L42.824 66.608ZM42.824 66.48V65.48H41.824V66.48H42.824ZM42.92 66.48V67.48H43.0028L43.0844 67.4664L42.92 66.48ZM46.792 67.792L45.9057 68.2553L45.9102 68.2637L46.792 67.792ZM46.632 73.872L47.4641 74.4267L47.47 74.4178L47.4757 74.4089L46.632 73.872ZM45.896 74.736L46.5419 75.4994L46.5584 75.4854L46.5743 75.4708L45.896 74.736ZM46.376 73.712H45.376V77.0148L47.2081 74.2667L46.376 73.712ZM46.952 69.328L45.9818 69.5705L45.9837 69.5779L46.952 69.328ZM46.248 67.568L47.1022 67.0481L46.9526 66.8023L46.6952 66.6736L46.248 67.568ZM45.928 67.408L46.3752 66.5136L46.203 66.4274L46.011 66.4115L45.928 67.408ZM43.784 67.408L43.6935 66.4121L42.7348 66.4993L42.7854 67.4606L43.784 67.408ZM43.848 69.424L44.848 69.437V69.424H43.848ZM43.816 71.888L44.8153 71.9264L44.8158 71.9137L44.8159 71.901L43.816 71.888ZM43.752 74.352H42.752V74.3832L42.7539 74.4144L43.752 74.352ZM43.784 74.864L42.7859 74.9264L42.8445 75.864H43.784V74.864ZM44.616 74.832L44.7155 75.827L44.7642 75.8222L44.8121 75.8126L44.616 74.832ZM45.096 74.768L45.5432 73.8736L45.3321 73.768H45.096V74.768ZM45.16 74.8L44.7128 75.6944L44.9239 75.8H45.16V74.8ZM45.512 74.608L46.112 75.408L48.512 73.608H45.512V74.608ZM45.48 74.608L44.9655 73.7505L41.8697 75.608H45.48V74.608ZM46.376 73.68H47.376V70.3066L45.5376 73.135L46.376 73.68ZM49.638 63.2877C50.4806 64.5615 51.0982 66.0458 51.4801 67.7541L53.4319 67.3179C53.0031 65.3995 52.298 63.6838 51.306 62.1843L49.638 63.2877ZM53.1631 66.8289L53.1311 66.7969L51.7169 68.2111L51.7489 68.2431L53.1631 66.8289ZM51.4753 67.8202C51.6036 68.2051 51.7041 68.8143 51.7451 69.6945L53.7429 69.6015C53.6985 68.647 53.5857 67.8269 53.3727 67.1878L51.4753 67.8202ZM51.7454 69.5954L51.6494 71.4194L53.6466 71.5246L53.7426 69.7006L51.7454 69.5954ZM51.6483 71.4485C51.606 73.245 51.4901 74.5498 51.3163 75.3996L53.2757 75.8004C53.4859 74.7729 53.6047 73.3257 53.6477 71.4955L51.6483 71.4485ZM51.3505 75.2745C50.9272 76.5039 50.3737 77.661 49.6898 78.7472L51.3822 79.8128C52.149 78.595 52.7688 77.2987 53.2415 75.9255L51.3505 75.2745ZM49.6827 78.7586C49.0038 79.8695 48.1972 81.0079 47.2605 82.1736L48.8195 83.4264C49.8028 82.2027 50.6602 80.9945 51.3893 79.8014L49.6827 78.7586ZM48.0088 81.8005C45.9724 81.8641 43.7963 81.896 41.48 81.896V83.896C43.8144 83.896 46.0116 83.8639 48.0712 83.7995L48.0088 81.8005ZM41.4416 81.8967C40.906 81.9173 40.1423 81.928 39.144 81.928V83.928C40.1511 83.928 40.9447 83.9173 41.5184 83.8953L41.4416 81.8967ZM40.1339 82.7866L40.0379 82.1146L38.0581 82.3974L38.1541 83.0694L40.1339 82.7866ZM38.9893 81.2577L38.4453 81.2897L38.5627 83.2863L39.1067 83.2543L38.9893 81.2577ZM39.4947 82.1519C39.1193 79.4196 38.928 75.8961 38.928 71.568H36.928C36.928 75.9439 37.1207 79.5671 37.5133 82.4241L39.4947 82.1519ZM38.928 71.568C38.928 69.7565 38.9387 68.4006 38.9597 67.4952L36.9603 67.4487C36.9387 68.3781 36.928 69.7528 36.928 71.568H38.928ZM38.96 67.4794L38.992 63.1274L36.992 63.1126L36.96 67.4646L38.96 67.4794ZM38.992 63.12C38.992 61.7312 38.9814 60.6837 38.9595 59.9848L36.9605 60.0472C36.9813 60.7136 36.992 61.7355 36.992 63.12H38.992ZM38.96 60.016C38.96 60.1275 38.9314 60.3948 38.6991 60.6271L37.2849 59.2129C37.0099 59.4879 36.96 59.8192 36.96 60.016H38.96ZM38.9205 60.2914C38.9098 60.3181 38.9002 60.3321 38.8992 60.3335C38.8984 60.3347 38.9047 60.3256 38.9231 60.3071L37.5089 58.8929C37.335 59.0668 37.1696 59.2835 37.0635 59.5486L38.9205 60.2914ZM38.476 60.5656C38.9726 60.4319 39.4659 60.3468 39.9567 60.3091L39.8033 58.3149C39.1847 58.3625 38.5687 58.4694 37.956 58.6344L38.476 60.5656ZM39.9904 60.3059C40.5202 60.247 41.1538 60.216 41.896 60.216V58.216C41.1022 58.216 40.3918 58.249 39.7696 58.3181L39.9904 60.3059ZM41.896 60.216C42.5519 60.216 43.0282 60.2267 43.3376 60.2461L43.4624 58.2499C43.0892 58.2266 42.5628 58.216 41.896 58.216V60.216ZM43.3783 60.2478L44.8503 60.2798L44.8937 58.2802L43.4217 58.2482L43.3783 60.2478ZM44.872 60.28C45.4324 60.28 45.8797 60.2694 46.1967 60.2451L46.0433 58.2509C45.8056 58.2692 45.4209 58.28 44.872 58.28V60.28ZM45.8327 60.2058C46.5358 60.4168 47.2632 60.8133 48.0137 61.4291L49.2823 59.8829C48.3688 59.1334 47.4109 58.5912 46.4073 58.2902L45.8327 60.2058ZM48.0258 61.4388C48.783 62.0408 49.3043 62.6391 49.6311 63.2238L51.3769 62.2482C50.893 61.3822 50.177 60.5939 49.2702 59.8732L48.0258 61.4388ZM50.504 61.736H50.472V63.736H50.504V61.736ZM45.16 58.6C44.4831 58.6 43.9837 58.5893 43.6507 58.5697L43.5333 60.5663C43.9256 60.5894 44.4715 60.6 45.16 60.6V58.6ZM43.612 58.5682L42.012 58.5362L41.972 60.5358L43.572 60.5678L43.612 58.5682ZM41.992 58.536C40.476 58.536 39.1812 58.6559 38.1335 58.9179L38.6185 60.8581C39.4481 60.6507 40.564 60.536 41.992 60.536V58.536ZM37.576 59.288L37.48 59.416L39.08 60.616L39.176 60.488L37.576 59.288ZM37.2805 60.0472C37.3013 60.7137 37.312 61.725 37.312 63.088H39.312C39.312 61.7203 39.3014 60.6836 39.2795 59.9848L37.2805 60.0472ZM37.312 63.0806L37.28 67.4326L39.28 67.4474L39.312 63.0954L37.312 63.0806ZM37.2803 67.4173C37.2587 68.3678 37.248 69.7957 37.248 71.696H39.248C39.248 69.7989 39.2587 68.3896 39.2797 67.4627L37.2803 67.4173ZM37.248 71.696C37.248 73.8387 37.2801 75.7296 37.3448 77.3674L39.3432 77.2886C39.2799 75.6837 39.248 73.82 39.248 71.696H37.248ZM37.3454 77.3806C37.4322 79.0296 37.5843 80.6067 37.8023 82.1114L39.7817 81.8246C39.5731 80.3853 39.4265 78.8691 39.3426 77.2754L37.3454 77.3806ZM39.4991 82.6751L39.5311 82.6431L38.1169 81.2289L38.0849 81.2609L39.4991 82.6751ZM38.824 82.936C42.5599 82.936 45.3791 82.904 47.2741 82.8394L47.2059 80.8406C45.3462 80.904 42.5547 80.936 38.824 80.936V82.936ZM48.0182 82.468C49.0195 81.2273 49.8663 80.052 50.5539 78.9429L48.8541 77.8891C48.2191 78.9133 47.4232 80.0207 46.4618 81.212L48.0182 82.468ZM50.5463 78.9551C51.2733 77.8191 51.8435 76.6227 52.2544 75.367L50.3536 74.745C49.9965 75.836 49.5001 76.8796 48.8617 77.8769L50.5463 78.9551ZM52.1984 75.5032L52.2304 75.4392L50.4416 74.5448L50.4096 74.6088L52.1984 75.5032ZM52.3187 75.1774C52.5466 73.9692 52.6766 72.3819 52.7198 70.4382L50.7202 70.3938C50.6781 72.2901 50.552 73.7535 50.3533 74.8066L52.3187 75.1774ZM52.719 70.4604L52.783 69.0204L50.785 68.9316L50.721 70.3716L52.719 70.4604ZM52.7825 68.9205C52.7133 67.6758 52.4716 66.4273 52.0624 65.177L50.1616 65.799C50.5204 66.8954 50.7267 67.9722 50.7855 69.0315L52.7825 68.9205ZM52.0624 65.177C51.6527 63.9251 51.1038 62.768 50.4136 61.7097L48.7384 62.8023C49.3282 63.7066 49.8033 64.7042 50.1616 65.799L52.0624 65.177ZM50.4335 61.7415C49.9797 60.9852 49.3802 60.3274 48.6484 59.7664L47.4316 61.3536C47.9798 61.7739 48.4043 62.2468 48.7185 62.7705L50.4335 61.7415ZM48.6614 59.7765C47.9448 59.2082 47.1673 58.8071 46.3305 58.5979L45.8455 60.5381C46.374 60.6703 46.8978 60.9305 47.4186 61.3435L48.6614 59.7765ZM46.0535 58.5686L45.1255 58.6006L45.1945 60.5994L46.1225 60.5674L46.0535 58.5686ZM44.8902 74.1032C44.5873 74.1567 44.2722 74.184 43.944 74.184V76.184C44.3838 76.184 44.8154 76.1473 45.2378 76.0728L44.8902 74.1032ZM43.944 74.184C43.7591 74.184 43.6417 74.1654 43.5751 74.1472C43.5101 74.1295 43.5203 74.1197 43.557 74.1527L42.219 75.6393C42.7083 76.0796 43.3677 76.184 43.944 76.184V74.184ZM43.8871 74.8526C43.8446 73.8759 43.824 73.1355 43.824 72.624H41.824C41.824 73.1791 41.8461 73.9535 41.8889 74.9394L43.8871 74.8526ZM43.8239 72.6389L43.8559 70.4949L41.8561 70.4651L41.8241 72.6091L43.8239 72.6389ZM43.8549 70.5276C43.8773 70.0556 43.888 69.3969 43.888 68.56H41.888C41.888 69.3871 41.8773 70.0084 41.8571 70.4324L43.8549 70.5276ZM43.888 68.56C43.888 68.0442 43.8657 67.3739 43.8226 66.5554L41.8254 66.6606C41.8676 67.4634 41.888 68.0944 41.888 68.56H43.888ZM43.824 66.608V66.48H41.824V66.608H43.824ZM42.824 67.48H42.92V65.48H42.824V67.48ZM43.0844 67.4664C43.4092 67.4123 43.7592 67.384 44.136 67.384V65.384C43.6594 65.384 43.1988 65.4197 42.7556 65.4936L43.0844 67.4664ZM44.136 67.384C45.1369 67.384 45.6269 67.7217 45.9058 68.2553L47.6782 67.3287C46.9758 65.985 45.6951 65.384 44.136 65.384V67.384ZM45.9102 68.2637C46.3098 69.0108 46.528 69.9201 46.528 71.024H48.528C48.528 69.6532 48.2555 68.4079 47.6738 67.3203L45.9102 68.2637ZM46.528 71.024C46.528 71.7651 46.3001 72.5309 45.7883 73.3351L47.4757 74.4089C48.1585 73.3358 48.528 72.2029 48.528 71.024H46.528ZM45.8 73.3173C45.6297 73.5726 45.4357 73.7999 45.2177 74.0012L46.5743 75.4708C46.9109 75.1601 47.2076 74.8114 47.4641 74.4267L45.8 73.3173ZM45.2501 73.9726C45.1619 74.0472 45.1047 74.0793 45.0793 74.0909C45.0563 74.1015 45.0757 74.088 45.128 74.088V76.088C45.6988 76.088 46.1783 75.807 46.5419 75.4994L45.2501 73.9726ZM45.128 74.088H45.064V76.088H45.128V74.088ZM47.2081 74.2667C47.8674 73.2777 48.208 72.1899 48.208 71.024H46.208C46.208 71.7781 45.9939 72.4823 45.544 73.1573L47.2081 74.2667ZM48.208 71.024C48.208 70.4417 48.1034 69.7876 47.9203 69.0781L45.9837 69.5779C46.142 70.1911 46.208 70.6677 46.208 71.024H48.208ZM47.9221 69.0855C47.7323 68.3261 47.4635 67.6416 47.1022 67.0481L45.3938 68.0879C45.6298 68.4757 45.8304 68.9645 45.9819 69.5705L47.9221 69.0855ZM46.6952 66.6736L46.3752 66.5136L45.4808 68.3024L45.8008 68.4624L46.6952 66.6736ZM46.011 66.4115C45.493 66.3683 45.0752 66.344 44.776 66.344V68.344C44.9888 68.344 45.339 68.3624 45.845 68.4045L46.011 66.4115ZM44.776 66.344C44.5337 66.344 44.1622 66.3695 43.6935 66.4121L43.8745 68.4039C44.3445 68.3612 44.6343 68.344 44.776 68.344V66.344ZM42.7854 67.4606C42.8275 68.2617 42.848 68.9147 42.848 69.424H44.848C44.848 68.8666 44.8258 68.1756 44.7826 67.3554L42.7854 67.4606ZM42.8481 69.411L42.8161 71.875L44.8159 71.901L44.8479 69.437L42.8481 69.411ZM42.8167 71.8496C42.774 72.9611 42.752 73.7984 42.752 74.352H44.752C44.752 73.8389 44.7727 73.0335 44.8153 71.9264L42.8167 71.8496ZM42.7539 74.4144L42.7859 74.9264L44.7821 74.8016L44.7501 74.2896L42.7539 74.4144ZM43.784 75.864H43.944V73.864H43.784V75.864ZM43.944 75.864C44.2088 75.864 44.4662 75.852 44.7155 75.827L44.5165 73.837C44.3392 73.8547 44.1485 73.864 43.944 73.864V75.864ZM44.8121 75.8126C44.9043 75.7941 44.9755 75.7823 45.0282 75.7752C45.0841 75.7678 45.1031 75.768 45.096 75.768V73.768C44.8859 73.768 44.6457 73.8063 44.4199 73.8514L44.8121 75.8126ZM44.6488 75.6624L44.7128 75.6944L45.6072 73.9056L45.5432 73.8736L44.6488 75.6624ZM45.16 75.8C45.4608 75.8 45.6964 75.6727 45.7749 75.6299C45.8929 75.5655 46.008 75.486 46.112 75.408L44.912 73.808C44.8454 73.858 44.8164 73.8745 44.8171 73.8741C44.8181 73.8736 44.8423 73.8601 44.8852 73.845C44.9076 73.8371 44.9411 73.8266 44.9839 73.8177C45.0261 73.809 45.0863 73.8 45.16 73.8V75.8ZM45.512 73.608H45.48V75.608H45.512V73.608ZM45.9945 75.4655C46.4833 75.1722 46.8828 74.7352 47.2144 74.225L45.5376 73.135C45.3145 73.4781 45.1167 73.6598 44.9655 73.7505L45.9945 75.4655ZM45.376 73.68V73.712H47.376V73.68H45.376Z" fill="black" mask="url(#path-8-outside-2_81_218)"/>
<defs>
<linearGradient id="paint0_linear_81_218" x1="50" y1="3" x2="50" y2="103" gradientUnits="userSpaceOnUse">
<stop stop-color="#F39F9F"/>
<stop offset="0.5" stop-color="#F9CFCF"/>
<stop offset="1" stop-color="white"/>
</linearGradient>
</defs>
</svg>
