<svg width="58" height="57" viewBox="0 0 58 57" fill="none" xmlns="http://www.w3.org/2000/svg">
<g filter="url(#filter0_d_42_215)">
<path d="M50.6461 12.4511C48.4105 8.6207 45.3782 5.5882 41.5481 3.35287C37.7176 1.11743 33.5357 0 28.9996 0C24.4641 0 20.2808 1.11778 16.4511 3.35287C12.6207 5.58809 9.58843 8.6207 7.35288 12.4511C5.11766 16.2813 4 20.464 4 24.9989C4 30.4464 5.58933 35.345 8.76879 39.6958C11.9479 44.047 16.0549 47.0578 21.0893 48.7286C21.6753 48.8374 22.1092 48.7609 22.3912 48.5011C22.6734 48.2409 22.8143 47.9151 22.8143 47.5249C22.8143 47.4598 22.8087 46.8741 22.7979 45.7672C22.7867 44.6602 22.7815 43.6945 22.7815 42.8706L22.0328 43.0001C21.5554 43.0875 20.9532 43.1246 20.2261 43.1141C19.4994 43.104 18.745 43.0278 17.9639 42.8862C17.1824 42.7459 16.4556 42.4203 15.7828 41.9104C15.1104 41.4004 14.633 40.7328 14.3508 39.9088L14.0253 39.1597C13.8084 38.661 13.4668 38.107 13.0001 37.4998C12.5335 36.892 12.0616 36.48 11.5842 36.263L11.3563 36.0998C11.2044 35.9914 11.0635 35.8606 10.9332 35.7089C10.803 35.5571 10.7055 35.4053 10.6404 35.2532C10.5752 35.101 10.6292 34.9761 10.8031 34.8782C10.977 34.7803 11.2912 34.7327 11.7471 34.7327L12.3979 34.83C12.832 34.917 13.3689 35.1768 14.0093 35.6111C14.6493 36.045 15.1755 36.6091 15.5879 37.3032C16.0872 38.1932 16.6889 38.8714 17.3945 39.338C18.0996 39.8047 18.8104 40.0376 19.5264 40.0376C20.2424 40.0376 20.8608 39.9833 21.3819 39.8754C21.9023 39.7668 22.3906 39.6037 22.8466 39.3868C23.0419 37.9322 23.5736 36.8148 24.4414 36.0337C23.2046 35.9037 22.0926 35.708 21.1049 35.4477C20.1178 35.1871 19.0977 34.7641 18.0454 34.1776C16.9925 33.5919 16.1191 32.8646 15.4248 31.997C14.7305 31.1289 14.1607 29.9892 13.7161 28.579C13.2714 27.1682 13.0489 25.5408 13.0489 23.6963C13.0489 21.0701 13.9063 18.8352 15.6207 16.9905C14.8176 15.016 14.8934 12.8026 15.8484 10.3504C16.4777 10.1549 17.411 10.3016 18.6478 10.7897C19.8849 11.278 20.7906 11.6963 21.3659 12.0431C21.9412 12.3898 22.4022 12.6836 22.7494 12.9219C24.768 12.3579 26.8512 12.0758 28.9994 12.0758C31.1476 12.0758 33.2312 12.3579 35.2499 12.9219L36.4868 12.1411C37.3327 11.62 38.3315 11.1425 39.481 10.7085C40.6311 10.2747 41.5106 10.1552 42.1185 10.3507C43.0947 12.803 43.1817 15.0163 42.3784 16.9908C44.0927 18.8355 44.9504 21.071 44.9504 23.6967C44.9504 25.5412 44.7271 27.1737 44.2831 28.5953C43.8384 30.0172 43.2637 31.1557 42.5586 32.0133C41.8528 32.8708 40.9737 33.5924 39.9214 34.1779C38.8689 34.764 37.8484 35.1869 36.8613 35.4476C35.8737 35.7082 34.7618 35.9041 33.525 36.0343C34.653 37.0105 35.2171 38.5513 35.2171 40.6562V47.524C35.2171 47.9141 35.3528 48.2399 35.6244 48.5002C35.8956 48.76 36.324 48.8365 36.91 48.7276C41.9451 47.057 46.0521 44.0461 49.2311 39.6949C52.4098 35.3441 53.9997 30.4455 53.9997 24.998C53.9985 20.4636 52.8803 16.2813 50.6461 12.4511Z" fill="black"/>
</g>
<defs>
<filter id="filter0_d_42_215" x="0" y="0" width="57.9996" height="56.7766" filterUnits="userSpaceOnUse" color-interpolation-filters="sRGB">
<feFlood flood-opacity="0" result="BackgroundImageFix"/>
<feColorMatrix in="SourceAlpha" type="matrix" values="0 0 0 0 0 0 0 0 0 0 0 0 0 0 0 0 0 0 127 0" result="hardAlpha"/>
<feOffset dy="4"/>
<feGaussianBlur stdDeviation="2"/>
<feComposite in2="hardAlpha" operator="out"/>
<feColorMatrix type="matrix" values="0 0 0 0 0 0 0 0 0 0 0 0 0 0 0 0 0 0 0.25 0"/>
<feBlend mode="normal" in2="BackgroundImageFix" result="effect1_dropShadow_42_215"/>
<feBlend mode="normal" in="SourceGraphic" in2="effect1_dropShadow_42_215" result="shape"/>
</filter>
</defs>
</svg>
