<svg width="51" height="70" viewBox="0 0 51 70" fill="none" xmlns="http://www.w3.org/2000/svg">
<rect x="28.6364" y="66.8181" width="3.18182" height="3.18182" fill="black"/>
<rect x="31.8182" y="66.8181" width="3.18182" height="3.18182" fill="black"/>
<rect x="35" y="66.8181" width="3.18182" height="3.18182" fill="black"/>
<rect x="38.1818" y="66.8181" width="3.18182" height="3.18182" fill="black"/>
<rect x="41.3636" y="66.8181" width="3.18182" height="3.18182" fill="black"/>
<rect x="44.5455" y="66.8181" width="3.18182" height="3.18182" fill="black"/>
<rect x="47.7273" y="63.6365" width="3.18182" height="3.18182" fill="black"/>
<rect x="47.7273" y="60.4546" width="3.18182" height="3.18182" fill="black"/>
<rect x="47.7273" y="57.2727" width="3.18182" height="3.18182" fill="black"/>
<rect x="47.7273" y="54.0908" width="3.18182" height="3.18182" fill="black"/>
<rect x="44.5455" y="54.0908" width="3.18182" height="3.18182" fill="black"/>
<rect x="44.5455" y="50.9092" width="3.18182" height="3.18182" fill="black"/>
<rect x="44.5455" y="47.7273" width="3.18182" height="3.18182" fill="black"/>
<rect x="41.3636" y="44.5454" width="3.18182" height="3.18182" fill="black"/>
<rect x="38.1818" y="41.3635" width="3.18182" height="3.18182" fill="black"/>
<rect x="35" y="38.1819" width="3.18182" height="3.18182" fill="black"/>
<rect x="31.8182" y="38.1819" width="3.18182" height="3.18182" fill="black"/>
<rect x="28.6364" y="38.1819" width="3.18182" height="3.18182" fill="black"/>
<rect x="20.6818" y="31.8181" width="3.18182" height="3.18182" fill="black"/>
<rect x="20.6818" width="3.18182" height="3.18182" fill="black"/>
<rect x="11.1364" y="25.4546" width="3.18182" height="3.18182" fill="black"/>
<rect x="11.1364" y="22.2727" width="3.18182" height="3.18182" fill="black"/>
<rect x="14.3182" y="28.6365" width="3.18182" height="3.18182" fill="black"/>
<rect x="39.7727" y="19.0908" width="3.18182" height="3.18182" fill="black"/>
<rect x="39.7727" y="15.9092" width="3.18182" height="3.18182" fill="black"/>
<rect x="39.7727" y="12.7273" width="3.18182" height="3.18182" fill="black"/>
<rect width="3.18182" height="3.18182" transform="matrix(-1 0 0 1 11.1364 12.7273)" fill="black"/>
<rect x="36.5909" y="9.54541" width="3.18182" height="3.18182" fill="black"/>
<rect width="3.18182" height="3.18182" transform="matrix(-1 0 0 1 14.3182 9.54541)" fill="black"/>
<rect x="39.7727" y="9.54541" width="3.18182" height="3.18182" fill="black"/>
<rect width="3.18182" height="3.18182" transform="matrix(-1 0 0 1 11.1364 9.54541)" fill="black"/>
<rect x="36.5909" y="6.36353" width="3.18182" height="3.18182" fill="black"/>
<rect width="3.18182" height="3.18182" transform="matrix(-1 0 0 1 14.3182 6.36353)" fill="black"/>
<rect x="33.4091" y="6.36353" width="3.18182" height="3.18182" fill="black"/>
<rect width="3.18182" height="3.18182" transform="matrix(-1 0 0 1 17.5 6.36353)" fill="black"/>
<rect x="33.4091" y="3.18188" width="3.18182" height="3.18182" fill="black"/>
<rect x="30.2273" y="3.18188" width="3.18182" height="3.18182" fill="black"/>
<rect x="17.5" y="3.18188" width="3.18182" height="3.18182" fill="black"/>
<rect width="3.18182" height="3.18182" transform="matrix(-1 0 0 1 17.5 3.18188)" fill="black"/>
<rect x="39.7727" y="22.2727" width="3.18182" height="3.18182" fill="black"/>
<rect x="36.5909" y="22.2727" width="3.18182" height="3.18182" fill="black"/>
<rect x="36.5909" y="25.4546" width="3.18182" height="3.18182" fill="black"/>
<rect x="33.4091" y="25.4546" width="3.18182" height="3.18182" fill="black"/>
<rect x="33.4091" y="28.6365" width="3.18182" height="3.18182" fill="black"/>
<rect x="27.0455" y="31.8181" width="3.18182" height="3.18182" fill="black"/>
<rect x="27.0455" width="3.18182" height="3.18182" fill="black"/>
<rect x="19.0909" y="38.1819" width="3.18182" height="3.18182" fill="black"/>
<rect x="15.9091" y="38.1819" width="3.18182" height="3.18182" fill="black"/>
<rect x="12.7273" y="38.1819" width="3.18182" height="3.18182" fill="black"/>
<rect x="9.54547" y="41.3635" width="3.18182" height="3.18182" fill="black"/>
<rect x="6.36365" y="44.5454" width="3.18182" height="3.18182" fill="black"/>
<rect x="3.18182" y="47.7273" width="3.18182" height="3.18182" fill="black"/>
<rect x="3.18182" y="50.9092" width="3.18182" height="3.18182" fill="black"/>
<rect y="54.0908" width="3.18182" height="3.18182" fill="black"/>
<rect y="57.2727" width="3.18182" height="3.18182" fill="black"/>
<rect y="60.4546" width="3.18182" height="3.18182" fill="black"/>
<rect y="63.6365" width="3.18182" height="3.18182" fill="black"/>
<rect x="3.18182" y="54.0908" width="3.18182" height="3.18182" fill="black"/>
<rect x="3.18182" y="66.8181" width="3.18182" height="3.18182" fill="black"/>
<rect x="30.2273" y="28.6365" width="3.18182" height="3.18182" fill="black"/>
<rect x="23.8636" y="31.8181" width="3.18182" height="3.18182" fill="black"/>
<rect x="23.8636" width="3.18182" height="3.18182" fill="black"/>
<rect x="6.36365" y="66.8181" width="3.18182" height="3.18182" fill="black"/>
<rect x="9.54547" y="66.8181" width="3.18182" height="3.18182" fill="black"/>
<rect x="14.3182" y="25.4546" width="3.18182" height="3.18182" fill="black"/>
<rect x="7.95453" y="22.2727" width="3.18182" height="3.18182" fill="black"/>
<rect x="7.95453" y="19.0908" width="3.18182" height="3.18182" fill="black"/>
<rect x="7.95453" y="15.9092" width="3.18182" height="3.18182" fill="black"/>
<rect x="17.5" y="28.6365" width="3.18182" height="3.18182" fill="black"/>
<rect x="12.7273" y="66.8181" width="3.18182" height="3.18182" fill="black"/>
<rect x="15.9091" y="66.8181" width="3.18182" height="3.18182" fill="black"/>
<rect x="19.0909" y="66.8181" width="3.18182" height="3.18182" fill="black"/>
<rect x="22.2727" y="66.8181" width="3.18182" height="3.18182" fill="black"/>
<rect x="25.4545" y="66.8181" width="3.18182" height="3.18182" fill="black"/>
</svg>
