<svg width="60" height="60" viewBox="0 0 60 60" fill="none" xmlns="http://www.w3.org/2000/svg">
<rect x="32.7273" y="6.6665" width="5.45455" height="6.66667" fill="#1E1E1E"/>
<rect x="38.1818" width="5.45455" height="6.66667" fill="#1E1E1E"/>
<rect x="43.6364" width="5.45455" height="6.66667" fill="#1E1E1E"/>
<rect x="49.0909" width="5.45455" height="6.66667" fill="#1E1E1E"/>
<rect x="27.2727" y="13.3333" width="5.45455" height="6.66667" fill="#1E1E1E"/>
<rect x="21.8182" y="6.6665" width="5.45455" height="6.66667" fill="#1E1E1E"/>
<rect x="16.3636" width="5.45455" height="6.66667" fill="#1E1E1E"/>
<rect x="10.9091" width="5.45455" height="6.66667" fill="#1E1E1E"/>
<rect x="5.45459" width="5.45455" height="6.66667" fill="#1E1E1E"/>
<rect x="54.5454" y="6.6665" width="5.45455" height="6.66667" fill="#1E1E1E"/>
<rect x="54.5454" y="13.3333" width="5.45455" height="6.66667" fill="#1E1E1E"/>
<rect x="54.5454" y="20" width="5.45455" height="6.66667" fill="#1E1E1E"/>
<rect x="49.0909" y="26.6665" width="5.45455" height="6.66667" fill="#1E1E1E"/>
<rect x="43.6364" y="33.3333" width="5.45455" height="6.66667" fill="#1E1E1E"/>
<rect x="38.1818" y="40" width="5.45455" height="6.66667" fill="#1E1E1E"/>
<rect x="32.7273" y="46.6665" width="5.45455" height="6.66667" fill="#1E1E1E"/>
<rect y="6.6665" width="5.45455" height="6.66667" fill="#1E1E1E"/>
<rect y="13.3333" width="5.45455" height="6.66667" fill="#1E1E1E"/>
<rect y="20" width="5.45455" height="6.66667" fill="#1E1E1E"/>
<rect x="10.9091" y="33.3333" width="5.45455" height="6.66667" fill="#1E1E1E"/>
<rect x="5.45459" y="26.6665" width="5.45455" height="6.66667" fill="#1E1E1E"/>
<rect x="16.3636" y="40" width="5.45455" height="6.66667" fill="#1E1E1E"/>
<rect x="21.8182" y="46.6665" width="5.45455" height="6.66667" fill="#1E1E1E"/>
<rect x="27.2727" y="53.3333" width="5.45455" height="6.66667" fill="#1E1E1E"/>
</svg>
