<svg width="50" height="50" viewBox="0 0 50 50" fill="none" xmlns="http://www.w3.org/2000/svg">
<g clip-path="url(#clip0_26_2)">
<path d="M26.6624 3.3375V0H23.3374V3.3375V6.6625H26.6624V3.3375Z" fill="white"/>
<path d="M10.0001 6.66248H6.6626V9.99998H10.0001V6.66248Z" fill="white"/>
<path d="M43.3375 6.66248H40V9.99998H43.3375V6.66248Z" fill="white"/>
<path d="M13.3375 10H10V13.3375H13.3375V10Z" fill="white"/>
<path d="M26.6625 13.3375H30V10H26.6625H23.3375H20V13.3375H23.3375H26.6625Z" fill="white"/>
<path d="M40.0001 10H36.6626V13.3375H40.0001V10Z" fill="white"/>
<path d="M20.0001 13.3375H16.6626V16.675H20.0001V13.3375Z" fill="white"/>
<path d="M33.3375 13.3375H30V16.675H33.3375V13.3375Z" fill="white"/>
<path d="M16.6749 16.6625H13.3374V20H16.6749V16.6625Z" fill="white"/>
<path d="M36.6749 16.6625H33.3374V20H36.6749V16.6625Z" fill="white"/>
<path d="M6.6625 23.3375H3.3375H0V26.6625H3.3375H6.6625V23.3375Z" fill="white"/>
<path d="M13.3375 23.3375V20H10V23.3375V26.6625V30H13.3375V26.6625V23.3375Z" fill="white"/>
<path d="M36.6626 26.6625V30H40.0001V26.6625V23.3375V20H36.6626V23.3375V26.6625Z" fill="white"/>
<path d="M46.6624 23.3375H43.3374V26.6625H46.6624H49.9999V23.3375H46.6624Z" fill="white"/>
<path d="M16.6749 30H13.3374V33.3375H16.6749V30Z" fill="white"/>
<path d="M36.6749 30H33.3374V33.3375H36.6749V30Z" fill="white"/>
<path d="M20.0001 33.3375H16.6626V36.675H20.0001V33.3375Z" fill="white"/>
<path d="M33.3375 33.3375H30V36.675H33.3375V33.3375Z" fill="white"/>
<path d="M13.3375 36.6625H10V40H13.3375V36.6625Z" fill="white"/>
<path d="M23.3375 36.6625H20V40H23.3375H26.6625H30V36.6625H26.6625H23.3375Z" fill="white"/>
<path d="M40.0001 36.6625H36.6626V40H40.0001V36.6625Z" fill="white"/>
<path d="M10.0001 40H6.6626V43.3375H10.0001V40Z" fill="white"/>
<path d="M43.3375 40H40V43.3375H43.3375V40Z" fill="white"/>
<path d="M23.3374 46.6625V50H26.6624V46.6625V43.3375H23.3374V46.6625Z" fill="white"/>
</g>
<defs>
<clipPath id="clip0_26_2">
<rect width="50" height="50" fill="white"/>
</clipPath>
</defs>
</svg>
